<svg width="1920" height="1151" viewBox="0 0 1920 1151" fill="none" xmlns="http://www.w3.org/2000/svg">
    <rect width="1920" height="1151" fill="white" />
    <path d="M1304.5 0H1920V1151H578L1304.5 0Z" fill="#00F7AD" />
    <path
        d="M393.75 364H459.75V396H358.5V224.75H390.5V361C390.5 361.833 390.75 362.583 391.25 363.25C391.917 363.75 392.75 364 393.75 364ZM548.811 224.5C564.311 224.5 578.644 228.333 591.811 236C605.144 243.667 615.644 254.167 623.311 267.5C630.977 280.667 634.811 295 634.811 310.5C634.811 326 630.977 340.417 623.311 353.75C615.644 366.917 605.144 377.333 591.811 385C578.644 392.667 564.311 396.5 548.811 396.5C533.311 396.5 518.894 392.667 505.561 385C492.394 377.333 481.977 366.917 474.311 353.75C466.644 340.417 462.811 326 462.811 310.5C462.811 298.833 465.061 287.75 469.561 277.25C474.227 266.583 480.394 257.417 488.061 249.75C495.727 242.083 504.811 236 515.311 231.5C525.977 226.833 537.144 224.5 548.811 224.5ZM510.561 348.75C521.227 359.25 533.977 364.5 548.811 364.5C563.644 364.5 576.311 359.25 586.811 348.75C597.477 338.083 602.811 325.333 602.811 310.5C602.811 295.667 597.477 283 586.811 272.5C576.311 261.833 563.644 256.5 548.811 256.5C533.977 256.5 521.227 261.833 510.561 272.5C500.061 283 494.811 295.667 494.811 310.5C494.811 325.333 500.061 338.083 510.561 348.75ZM748.539 225.5H782.789L720.539 395.5H697.289L635.039 225.5H669.289L707.039 328.5L708.789 329H710.289L711.289 327.25L748.539 225.5ZM833.447 257C832.614 257 831.864 257.333 831.197 258C830.531 258.5 830.197 259.167 830.197 260V291.75C830.197 292.583 830.447 293.333 830.947 294C831.614 294.5 832.447 294.75 833.447 294.75H886.697V327H833.447C832.614 327 831.864 327.333 831.197 328C830.531 328.5 830.197 329.167 830.197 330V360.75C830.197 361.583 830.447 362.333 830.947 363C831.614 363.667 832.447 364 833.447 364H899.447V396H798.197V225H899.447V257H833.447ZM983.453 308L1056.2 396.25H1013.95L959.953 329.75L954.953 335V396.25H922.953V225.5H954.953V279.75C954.953 280.583 955.286 281.333 955.953 282C956.62 282.667 957.37 283 958.203 283H958.953L960.453 282L1012.7 225.25L1055.95 225.5L983.453 304C982.286 305.333 982.286 306.667 983.453 308ZM1135.72 224.5C1151.22 224.5 1165.56 228.333 1178.72 236C1192.06 243.667 1202.56 254.167 1210.22 267.5C1217.89 280.667 1221.72 295 1221.72 310.5C1221.72 326 1217.89 340.417 1210.22 353.75C1202.56 366.917 1192.06 377.333 1178.72 385C1165.56 392.667 1151.22 396.5 1135.72 396.5C1120.22 396.5 1105.81 392.667 1092.47 385C1079.31 377.333 1068.89 366.917 1061.22 353.75C1053.56 340.417 1049.72 326 1049.72 310.5C1049.72 298.833 1051.97 287.75 1056.47 277.25C1061.14 266.583 1067.31 257.417 1074.97 249.75C1082.64 242.083 1091.72 236 1102.22 231.5C1112.89 226.833 1124.06 224.5 1135.72 224.5ZM1097.47 348.75C1108.14 359.25 1120.89 364.5 1135.72 364.5C1150.56 364.5 1163.22 359.25 1173.72 348.75C1184.39 338.083 1189.72 325.333 1189.72 310.5C1189.72 295.667 1184.39 283 1173.72 272.5C1163.22 261.833 1150.56 256.5 1135.72 256.5C1120.89 256.5 1108.14 261.833 1097.47 272.5C1086.97 283 1081.72 295.667 1081.72 310.5C1081.72 325.333 1086.97 338.083 1097.47 348.75ZM1345.52 225.5H1377.52V395.25H1341.02L1279.27 289.5L1277.77 289.25H1275.52L1275.02 291.75V395.5H1243.02V225.5H1279.52L1341.27 331.5L1343.02 331.75H1345.02L1345.52 329.25V225.5ZM1570.35 300.75C1570.68 304.25 1570.85 307.5 1570.85 310.5C1570.85 318.667 1569.76 326.583 1567.6 334.25C1562.26 352.583 1551.85 367.583 1536.35 379.25C1521.01 390.75 1503.85 396.5 1484.85 396.5C1482.01 396.5 1479.1 396.333 1476.1 396C1455.1 394 1437.1 385 1422.1 369C1407.26 352.833 1399.51 334.167 1398.85 313C1398.18 288.833 1406.26 268.083 1423.1 250.75C1428.6 245.083 1434.6 240.333 1441.1 236.5C1447.76 232.5 1454.76 229.5 1462.1 227.5C1469.43 225.5 1477.01 224.5 1484.85 224.5C1496.51 224.5 1507.76 226.833 1518.6 231.5C1529.43 236.167 1538.93 242.75 1547.1 251.25L1519.6 269.25C1509.43 260.75 1497.85 256.5 1484.85 256.5C1476.68 256.5 1468.93 258.25 1461.6 261.75C1454.26 265.25 1448.01 270.167 1442.85 276.5C1437.68 282.833 1434.18 290 1432.35 298C1430.51 306 1430.43 314 1432.1 322C1434.26 332.333 1439.18 341.333 1446.85 349C1454.51 356.5 1463.43 361.25 1473.6 363.25C1477.43 364.083 1481.18 364.5 1484.85 364.5C1492.68 364.5 1500.1 362.917 1507.1 359.75C1514.26 356.417 1520.43 351.75 1525.6 345.75C1528.1 343.083 1530.43 339.833 1532.6 336L1534.1 332.75H1495.85V300.75H1570.35Z"
        fill="black" />
    <path
        d="M428.75 915.5C440.417 915.5 451.167 911.75 461 904.25L489.5 922.25C472.667 939.083 452.417 947.5 428.75 947.5C416.417 947.5 404.667 945 393.5 940C382.333 934.833 372.667 927.667 364.5 918.5C356.167 909.167 350.167 898.75 346.5 887.25C343 875.583 342 863.5 343.5 851C344.833 838.667 348.833 827.167 355.5 816.5C362.167 805.667 370.75 796.75 381.25 789.75C391.75 782.75 403.083 778.333 415.25 776.5C419.75 775.833 424.25 775.5 428.75 775.5C452.583 775.5 472.917 784 489.75 801L461.25 818.75C451.417 811.25 440.583 807.5 428.75 807.5C413.917 807.5 401.167 812.833 390.5 823.5C380 834 374.75 846.667 374.75 861.5C374.75 876.333 380 889.083 390.5 899.75C401.167 910.25 413.917 915.5 428.75 915.5ZM594.227 776.5L663.477 946.5H628.727L615.727 914.25C615.227 912.917 614.227 912.25 612.727 912.25H546.727C545.56 912.25 544.643 912.833 543.977 914L528.977 946.5H493.477L572.727 776.5H594.227ZM599.727 878.75C600.393 877.917 600.56 877 600.227 876L584.977 838.5C584.477 837.333 583.477 836.75 581.977 836.75C580.81 836.75 579.893 837.333 579.227 838.5L561.477 876.75L561.977 878.75C562.643 879.75 563.56 880.25 564.727 880.25H598.477L599.727 878.75ZM713.875 808C712.875 808 712.042 808.333 711.375 809C710.875 809.5 710.625 810.167 710.625 811V842.75C710.625 843.583 710.875 844.333 711.375 845C712.042 845.5 712.875 845.75 713.875 845.75H779.875V878H713.875C713.042 878 712.292 878.333 711.625 879C710.958 879.5 710.625 880.167 710.625 881V947H678.625V776H779.875V808H713.875ZM837.41 808C836.41 808 835.577 808.333 834.91 809C834.41 809.5 834.16 810.167 834.16 811V842.75C834.16 843.25 834.327 843.75 834.66 844.25C834.993 844.75 835.327 845.167 835.66 845.5C836.16 845.667 836.743 845.75 837.41 845.75H890.66V878H837.41C836.41 878 835.577 878.333 834.91 879C834.41 879.5 834.16 880.167 834.16 881V911.75C834.16 912.583 834.41 913.333 834.91 914C835.577 914.667 836.41 915 837.41 915H903.41V947H802.16V776H903.41V808H837.41ZM1096.18 776.5L1165.43 946.5H1130.68L1117.68 914.25C1117.18 912.917 1116.18 912.25 1114.68 912.25H1048.68C1047.51 912.25 1046.6 912.833 1045.93 914L1030.93 946.5H995.43L1074.68 776.5H1096.18ZM1101.68 878.75C1102.35 877.917 1102.51 877 1102.18 876L1086.93 838.5C1086.43 837.333 1085.43 836.75 1083.93 836.75C1082.76 836.75 1081.85 837.333 1081.18 838.5L1063.43 876.75L1063.93 878.75C1064.6 879.75 1065.51 880.25 1066.68 880.25H1100.43L1101.68 878.75ZM1267.08 776.5L1336.33 946.5H1301.58L1288.58 914.25C1288.08 912.917 1287.08 912.25 1285.58 912.25H1219.58C1218.41 912.25 1217.49 912.833 1216.83 914L1201.83 946.5H1166.33L1245.58 776.5H1267.08ZM1272.58 878.75C1273.24 877.917 1273.41 877 1273.08 876L1257.83 838.5C1257.33 837.333 1256.33 836.75 1254.83 836.75C1253.66 836.75 1252.74 837.333 1252.08 838.5L1234.33 876.75L1234.83 878.75C1235.49 879.75 1236.41 880.25 1237.58 880.25H1271.33L1272.58 878.75ZM1473.48 776.75H1507.48V946.75H1475.48V870.25L1472.98 869.75H1471.48L1470.48 871.5L1438.73 946.5H1419.98L1387.73 870L1385.98 869.5H1383.73L1383.23 872.25V946.5H1351.23V776.75H1385.48L1427.48 883.25L1429.48 883.75H1430.73L1431.73 882L1473.48 776.75Z"
        fill="black" />
    <rect width="267.158" height="32.6567" transform="matrix(0.707107 0.707107 0.707107 -0.707107 840 492.092)"
        fill="black" />
    <rect width="267.158" height="32.6567" transform="matrix(0.707107 -0.707107 -0.707107 -0.707107 863.092 681)"
        fill="black" />
</svg>