<svg width="107" height="462" viewBox="0 0 107 462" fill="none" xmlns="http://www.w3.org/2000/svg">
    <path
        d="M0 0H18L36 9L54.5 18V43L80 56.5V78.5L107 88.5V142V183L51.5 272.75V319V367.125V414.312V437.906L42.5 451L29 461.5H1L18.75 449.672L29 437.844V396.688V355.375V272.75L89 176.5V100.5L62.5 88.5V67.5L36 52.5V30L18 22H0V0Z"
        fill="#221E1F" />
    <path d="M29 299H39V309H29V299Z" fill="white" />
    <path d="M29 318H39V328H29V318Z" fill="white" />
    <path d="M29 337H39V347H29V337Z" fill="white" />
    <path d="M29 382H39V392H29V382Z" fill="white" />
    <path d="M29 397H39V407H29V397Z" fill="white" />
</svg>