<svg width="976" height="1014" viewBox="0 0 976 1014" fill="none" xmlns="http://www.w3.org/2000/svg">
    <path
        d="M242.158 186.512H793.736C793.736 186.512 746.012 253.777 701.399 253.777C530.177 253.777 242.158 253.777 242.158 253.777V186.512Z"
        fill="#0029FF" />
    <path
        d="M104.566 345.498C104.566 345.498 185.127 258.769 217.772 202.227C250.417 145.685 222.614 105.044 268.177 83.9451C293.75 72.1029 340.257 80.4741 340.257 80.4741C340.257 80.4741 310.105 178.258 278.231 234.034C245.321 291.625 239.595 322.329 188.334 341.229C157.601 352.561 104.566 345.498 104.566 345.498Z"
        fill="#0029FF" />
    <path
        d="M0 895.566C0 895.566 150.239 828.835 206.083 792.165C244.167 767.157 280.307 730.296 294.14 712.669C309.53 693.058 334.789 648.086 347.953 603.821C363.487 551.583 365.686 500.809 365.686 500.809L436.492 500.809C436.492 500.809 430.181 562.119 412.161 626.447C399.252 672.527 382.303 713.776 357.125 746.914C333.426 778.105 295.48 816.671 256.227 841.085C200.439 875.784 190.096 884.037 142.059 895.576C88.1159 908.533 0 895.566 0 895.566Z"
        fill="#0029FF" />
    <path
        d="M158.379 437.259C469.023 447.656 932.545 437.259 932.545 437.259C932.545 437.259 871.754 498.031 822.474 499.021C685.496 501.773 490.426 501.773 490.426 501.773L324.402 503.149L37.9121 504.525C37.9121 504.525 104.527 435.457 158.379 437.259Z"
        fill="#0029FF" />
    <path
        d="M539.533 0L539.533 447.01L472.268 447.01C472.268 447.01 472.268 213.415 472.268 45.8629C472.268 14.0692 539.533 0 539.533 0Z"
        fill="#0029FF" />
    <path
        d="M648.068 493.486C648.068 493.486 611.531 650.315 648.068 738.93C661.509 771.529 669.425 791.323 693.851 816.754C769.998 896.038 975.342 816.754 975.342 816.754C975.342 816.754 937.132 864.111 905.018 884.85C815.516 942.649 705.379 962.283 632.197 884.85C595.313 845.823 579.627 814.553 566.245 762.549C540.573 662.787 580.921 493.486 580.921 493.486L648.068 493.486Z"
        fill="#0029FF" />
</svg>